<svg width="34" height="34" viewBox="0 0 34 34" fill="none" xmlns="http://www.w3.org/2000/svg">
<path d="M16.9987 0.333313C7.83203 0.333313 0.332031 7.83331 0.332031 17C0.332031 26.1666 7.83203 33.6666 16.9987 33.6666C26.1654 33.6666 33.6654 26.1666 33.6654 17C33.6654 7.83331 26.1654 0.333313 16.9987 0.333313ZM23.9987 14.1666L15.9987 22.1666C15.332 22.8333 14.332 22.8333 13.6654 22.1666L9.9987 18.5C9.33203 17.8333 9.33203 16.8333 9.9987 16.1666C10.6654 15.5 11.6654 15.5 12.332 16.1666L14.832 18.6666L21.6654 11.8333C22.332 11.1666 23.332 11.1666 23.9987 11.8333C24.6654 12.5 24.6654 13.5 23.9987 14.1666Z" fill="#FFBC57"/>
</svg>
